<?xml version="1.0" encoding="UTF-8" standalone="no"?>
<svg
   xmlns:dc="http://purl.org/dc/elements/1.1/"
   xmlns:cc="http://creativecommons.org/ns#"
   xmlns:rdf="http://www.w3.org/1999/02/22-rdf-syntax-ns#"
   xmlns:svg="http://www.w3.org/2000/svg"
   xmlns="http://www.w3.org/2000/svg"
   xmlns:sodipodi="http://sodipodi.sourceforge.net/DTD/sodipodi-0.dtd"
   xmlns:inkscape="http://www.inkscape.org/namespaces/inkscape"
   version="1.1"
   id="svg10"
   xml:space="preserve"
   width="1333.3333"
   height="1333.3333"
   viewBox="0 0 1333.3333 1333.3333"
   sodipodi:docname="Albertaloop Logo.svg"
   inkscape:version="1.0.1 (3bc2e813f5, 2020-09-07)"><metadata
     id="metadata16"><rdf:RDF><cc:Work
         rdf:about=""><dc:format>image/svg+xml</dc:format><dc:type
           rdf:resource="http://purl.org/dc/dcmitype/StillImage" /><dc:title></dc:title></cc:Work></rdf:RDF></metadata><defs
     id="defs14"><clipPath
       clipPathUnits="userSpaceOnUse"
       id="clipPath26"><path
         d="M 85.668,656.353 C 32.557,603.242 12.118,529.833 24.34,461.102 v 0 c 18.424,103.507 108.876,182.099 217.682,182.099 v 0 c 36.677,0.044 73.347,-13.921 101.313,-41.888 v 0 C 372.531,572.127 445.277,500 445.277,500 v 0 l 20.819,-20.829 c 0.558,-0.548 1.124,-1.114 1.69,-1.68 v 0 l 32.212,-32.211 c 34.591,-34.591 77.23,-77.231 101.632,-101.632 v 0 c 86.349,-86.351 226.347,-86.351 312.697,0 v 0 c 53.111,53.11 73.551,126.52 61.336,195.249 v 0 c -9.216,-51.758 -36.439,-97.28 -74.957,-129.863 v 0 c -38.518,-32.592 -88.33,-52.235 -142.732,-52.235 v 0 c -36.669,-0.044 -73.348,13.921 -101.314,41.887 v 0 C 627.474,427.873 554.719,500 554.719,500 v 0 c 0,0 -15.673,15.681 -37.669,37.678 v 0 c -5.351,5.351 -11.083,11.082 -17.043,17.042 v 0 h -0.009 c -34.591,34.6 -77.221,77.231 -101.624,101.633 v 0 c -43.174,43.174 -99.763,64.761 -156.353,64.761 v 0 c -56.589,0 -113.178,-21.587 -156.353,-64.761"
         id="path24" /></clipPath><linearGradient
       x1="0"
       y1="0"
       x2="1"
       y2="0"
       gradientUnits="userSpaceOnUse"
       gradientTransform="matrix(0,442.229,442.229,0,500,278.8855)"
       spreadMethod="pad"
       id="linearGradient44"><stop
         style="stop-opacity:1;stop-color:#fff26f"
         offset="0"
         id="stop32" /><stop
         style="stop-opacity:1;stop-color:#fff26f"
         offset="0.0255809"
         id="stop34" /><stop
         style="stop-opacity:1;stop-color:#ffdc09"
         offset="0.326583"
         id="stop36" /><stop
         style="stop-opacity:1;stop-color:#ffdc09"
         offset="0.494391"
         id="stop38" /><stop
         style="stop-opacity:1;stop-color:#ffdc09"
         offset="0.792067"
         id="stop40" /><stop
         style="stop-opacity:1;stop-color:#fff268"
         offset="1"
         id="stop42" /></linearGradient><clipPath
       clipPathUnits="userSpaceOnUse"
       id="clipPath54"><path
         d="M 0,1000 H 1000 V 0 H 0 Z"
         id="path52" /></clipPath><clipPath
       clipPathUnits="userSpaceOnUse"
       id="clipPath66"><path
         d="m 24.34,461.102 c 4.299,-24.164 12.631,-47.752 25.004,-69.669 v 0 c 9.65,-17.113 21.766,-33.21 36.333,-47.785 v 0 c 61.231,-61.231 149.437,-79.044 226.366,-53.43 v 0 c 31.557,10.498 61.213,28.31 86.331,53.43 v 0 c 21.891,21.889 65.874,65.873 101.633,101.632 v 0 h -0.009 c -0.743,0.743 -1.486,1.484 -2.221,2.228 v 0 l -8.243,8.234 c -0.132,0.142 -0.265,0.275 -0.406,0.408 v 0 l -0.433,0.432 c -0.549,0.558 -1.106,1.106 -1.655,1.663 v 0 l -1.513,1.513 c -0.185,0.176 -0.361,0.362 -0.548,0.539 v 0 l -17.193,17.194 -2.282,2.29 c -0.344,0.345 -0.69,0.69 -1.035,1.027 v 0 L 445.286,500 c 0,0 -75.32,-74.471 -102.057,-101.207 v 0 c -55.95,-55.952 -146.624,-56.004 -202.512,-0.107 v 0 c -34.44,34.441 -47.645,82.087 -39.615,126.68 v 0 c 5.006,27.771 18.246,54.367 39.721,75.841 v 0 c 13.983,13.974 30.124,24.464 47.353,31.47 v 0 c 16.619,6.747 34.255,10.25 51.917,10.506 v 0 C 132.155,642.263 42.666,563.99 24.34,461.102"
         id="path64" /></clipPath><linearGradient
       x1="0"
       y1="0"
       x2="1"
       y2="0"
       gradientUnits="userSpaceOnUse"
       gradientTransform="matrix(273.74075,-273.74075,-273.74075,-273.74075,97.275436,590.0296)"
       spreadMethod="pad"
       id="linearGradient80"><stop
         style="stop-opacity:1;stop-color:#074928"
         offset="0"
         id="stop72" /><stop
         style="stop-opacity:1;stop-color:#007d43"
         offset="0.293169"
         id="stop74" /><stop
         style="stop-opacity:1;stop-color:#007d43"
         offset="1"
         id="stop76" /><stop
         style="stop-opacity:1;stop-color:#007d43"
         offset="1"
         id="stop78" /></linearGradient><clipPath
       clipPathUnits="userSpaceOnUse"
       id="clipPath90"><path
         d="M 687.961,709.782 C 656.403,699.284 626.748,681.471 601.63,656.353 v 0 C 579.74,634.463 535.756,590.479 499.998,554.72 v 0 h 0.009 c 0.742,-0.742 1.486,-1.486 2.22,-2.228 v 0 l 8.243,-8.234 c 0.132,-0.141 0.265,-0.274 0.406,-0.407 v 0 l 0.434,-0.434 c 0.549,-0.557 1.105,-1.105 1.654,-1.662 v 0 l 1.512,-1.513 c 0.186,-0.176 0.363,-0.362 0.548,-0.539 v 0 l 17.194,-17.194 2.282,-2.29 c 0.345,-0.346 0.689,-0.69 1.035,-1.027 v 0 L 554.719,500 c 0,0 75.319,74.471 102.056,101.207 v 0 c 55.95,55.95 146.624,56.004 202.512,0.106 v 0 c 34.441,-34.44 47.646,-82.085 39.615,-126.679 v 0 c -5.007,-27.771 -18.247,-54.367 -39.721,-75.842 v 0 c -13.983,-13.974 -30.124,-24.463 -47.353,-31.468 v 0 c -16.619,-6.749 -34.255,-10.251 -51.917,-10.507 v 0 c 107.937,0.919 197.427,79.192 215.752,182.08 v 0 c -4.298,24.164 -12.63,47.753 -25.003,69.669 v 0 c -9.65,17.114 -21.766,33.211 -36.333,47.787 v 0 c -43.176,43.176 -99.751,64.764 -156.341,64.76 v 0 c -23.664,-0.001 -47.342,-3.778 -70.025,-11.331"
         id="path88" /></clipPath><linearGradient
       x1="1"
       y1="0"
       x2="1"
       y2="0"
       gradientUnits="userSpaceOnUse"
       gradientTransform="matrix(-273.74075,273.74075,273.74075,273.74075,902.72864,409.97037)"
       spreadMethod="pad"
       id="linearGradient104"><stop
         style="stop-opacity:1;stop-color:#007d43"
         offset="0"
         id="stop100" /><stop
         style="stop-opacity:1;stop-color:#007d43"
         offset="1"
         id="stop102" /></linearGradient><clipPath
       clipPathUnits="userSpaceOnUse"
       id="clipPath114"><path
         d="M 500.01,554.725 554.719,500 l 105.85,105.85 -54.72,54.721 z"
         id="path112" /></clipPath><clipPath
       clipPathUnits="userSpaceOnUse"
       id="clipPath122"><path
         d="M -32768,32767 H 32767 V -32768 H -32768 Z"
         id="path120" /></clipPath><linearGradient
       x1="0"
       y1="0"
       x2="1"
       y2="0"
       gradientUnits="userSpaceOnUse"
       gradientTransform="matrix(93.764389,93.764389,93.764389,-93.764389,533.95557,533.95789)"
       spreadMethod="pad"
       id="linearGradient132"><stop
         style="stop-opacity:0.50000763;stop-color:#ffffff"
         offset="0"
         id="stop124" /><stop
         style="stop-opacity:0.50000763;stop-color:#ffffff"
         offset="0.00052743"
         id="stop126" /><stop
         style="stop-opacity:0;stop-color:#ffffff"
         offset="0.659817"
         id="stop128" /><stop
         style="stop-opacity:0;stop-color:#ffffff"
         offset="1"
         id="stop130" /></linearGradient><mask
       maskUnits="userSpaceOnUse"
       x="0"
       y="0"
       width="1"
       height="1"
       id="mask134"><g
         id="g144"><g
           clip-path="url(#clipPath122)"
           id="g142"><g
             id="g140"><g
               id="g138"><path
                 d="M -32768,32767 H 32767 V -32768 H -32768 Z"
                 style="fill:url(#linearGradient132);stroke:none"
                 id="path136" /></g></g></g></g></mask><linearGradient
       x1="0"
       y1="0"
       x2="1"
       y2="0"
       gradientUnits="userSpaceOnUse"
       gradientTransform="matrix(93.764389,93.764389,93.764389,-93.764389,533.95557,533.95789)"
       spreadMethod="pad"
       id="linearGradient158"><stop
         style="stop-opacity:1;stop-color:#000000"
         offset="0"
         id="stop150" /><stop
         style="stop-opacity:1;stop-color:#000000"
         offset="0.00052743"
         id="stop152" /><stop
         style="stop-opacity:1;stop-color:#000000"
         offset="0.659817"
         id="stop154" /><stop
         style="stop-opacity:1;stop-color:#000000"
         offset="1"
         id="stop156" /></linearGradient><clipPath
       clipPathUnits="userSpaceOnUse"
       id="clipPath168"><path
         d="M 339.426,394.15 394.147,339.429 499.985,445.275 445.277,500 Z"
         id="path166" /></clipPath><clipPath
       clipPathUnits="userSpaceOnUse"
       id="clipPath176"><path
         d="M -32768,32767 H 32767 V -32768 H -32768 Z"
         id="path174" /></clipPath><linearGradient
       x1="0"
       y1="0"
       x2="1"
       y2="0"
       gradientUnits="userSpaceOnUse"
       gradientTransform="matrix(-93.764389,-93.764389,-93.764389,93.764389,466.03967,466.04208)"
       spreadMethod="pad"
       id="linearGradient186"><stop
         style="stop-opacity:0.50000763;stop-color:#ffffff"
         offset="0"
         id="stop178" /><stop
         style="stop-opacity:0.50000763;stop-color:#ffffff"
         offset="0.00052743"
         id="stop180" /><stop
         style="stop-opacity:0;stop-color:#ffffff"
         offset="0.659817"
         id="stop182" /><stop
         style="stop-opacity:0;stop-color:#ffffff"
         offset="1"
         id="stop184" /></linearGradient><mask
       maskUnits="userSpaceOnUse"
       x="0"
       y="0"
       width="1"
       height="1"
       id="mask188"><g
         id="g198"><g
           clip-path="url(#clipPath176)"
           id="g196"><g
             id="g194"><g
               id="g192"><path
                 d="M -32768,32767 H 32767 V -32768 H -32768 Z"
                 style="fill:url(#linearGradient186);stroke:none"
                 id="path190" /></g></g></g></g></mask><linearGradient
       x1="0"
       y1="0"
       x2="1"
       y2="0"
       gradientUnits="userSpaceOnUse"
       gradientTransform="matrix(-93.764389,-93.764389,-93.764389,93.764389,466.03967,466.04208)"
       spreadMethod="pad"
       id="linearGradient212"><stop
         style="stop-opacity:1;stop-color:#000000"
         offset="0"
         id="stop204" /><stop
         style="stop-opacity:1;stop-color:#000000"
         offset="0.00052743"
         id="stop206" /><stop
         style="stop-opacity:1;stop-color:#000000"
         offset="0.659817"
         id="stop208" /><stop
         style="stop-opacity:1;stop-color:#000000"
         offset="1"
         id="stop210" /></linearGradient></defs><sodipodi:namedview
     pagecolor="#ffffff"
     bordercolor="#666666"
     borderopacity="1"
     objecttolerance="10"
     gridtolerance="10"
     guidetolerance="10"
     inkscape:pageopacity="0"
     inkscape:pageshadow="2"
     inkscape:window-width="1920"
     inkscape:window-height="1017"
     id="namedview12"
     showgrid="false"
     inkscape:zoom="0.9015612"
     inkscape:cx="1110.152"
     inkscape:cy="783.328"
     inkscape:window-x="-8"
     inkscape:window-y="-8"
     inkscape:window-maximized="1"
     inkscape:current-layer="g1145" /><g
     inkscape:groupmode="layer"
     id="layer2"
     inkscape:label="back"><g
       id="g1145"
       transform="matrix(1.3333333,0,0,-1.3333333,0,1333.3333)"><g
         id="g20"
         style="fill:#feba35;fill-opacity:1;stroke:none"><g
           id="g22"
           clip-path="url(#clipPath26)"
           style="fill:#feba35;fill-opacity:1;stroke:none"><g
             id="g28"
             style="fill:#feba35;fill-opacity:1;stroke:none"><g
               id="g30"
               style="fill:#feba35;fill-opacity:1;stroke:none"><path
                 d="M 85.668,656.353 C 32.557,603.242 12.118,529.833 24.34,461.102 v 0 c 18.424,103.507 108.876,182.099 217.682,182.099 v 0 c 36.677,0.044 73.347,-13.921 101.313,-41.888 v 0 C 372.531,572.127 445.277,500 445.277,500 v 0 l 20.819,-20.829 c 0.558,-0.548 1.124,-1.114 1.69,-1.68 v 0 l 32.212,-32.211 c 34.591,-34.591 77.23,-77.231 101.632,-101.632 v 0 c 86.349,-86.351 226.347,-86.351 312.697,0 v 0 c 53.111,53.11 73.551,126.52 61.336,195.249 v 0 c -9.216,-51.758 -36.439,-97.28 -74.957,-129.863 v 0 c -38.518,-32.592 -88.33,-52.235 -142.732,-52.235 v 0 c -36.669,-0.044 -73.348,13.921 -101.314,41.887 v 0 C 627.474,427.873 554.719,500 554.719,500 v 0 c 0,0 -15.673,15.681 -37.669,37.678 v 0 c -5.351,5.351 -11.083,11.082 -17.043,17.042 v 0 h -0.009 c -34.591,34.6 -77.221,77.231 -101.624,101.633 v 0 c -43.174,43.174 -99.763,64.761 -156.353,64.761 v 0 c -56.589,0 -113.178,-21.587 -156.353,-64.761"
                 style="fill:#feba35;stroke:none;fill-opacity:1"
                 id="path46" /></g></g></g></g><g
         id="g60"
         style="fill:#0d3692;fill-opacity:1;stroke:none"><g
           id="g62"
           clip-path="url(#clipPath66)"
           style="fill:#0d3692;fill-opacity:1;stroke:none"><g
             id="g68"
             style="fill:#0d3692;fill-opacity:1;stroke:none"><g
               id="g70"
               style="fill:#0d3692;fill-opacity:1;stroke:none"><path
                 d="m 24.34,461.102 c 4.299,-24.164 12.631,-47.752 25.004,-69.669 v 0 c 9.65,-17.113 21.766,-33.21 36.333,-47.785 v 0 c 61.231,-61.231 149.437,-79.044 226.366,-53.43 v 0 c 31.557,10.498 61.213,28.31 86.331,53.43 v 0 c 21.891,21.889 65.874,65.873 101.633,101.632 v 0 h -0.009 c -0.743,0.743 -1.486,1.484 -2.221,2.228 v 0 l -8.243,8.234 c -0.132,0.142 -0.265,0.275 -0.406,0.408 v 0 l -0.433,0.432 c -0.549,0.558 -1.106,1.106 -1.655,1.663 v 0 l -1.513,1.513 c -0.185,0.176 -0.361,0.362 -0.548,0.539 v 0 l -17.193,17.194 -2.282,2.29 c -0.344,0.345 -0.69,0.69 -1.035,1.027 v 0 L 445.286,500 c 0,0 -75.32,-74.471 -102.057,-101.207 v 0 c -55.95,-55.952 -146.624,-56.004 -202.512,-0.107 v 0 c -34.44,34.441 -47.645,82.087 -39.615,126.68 v 0 c 5.006,27.771 18.246,54.367 39.721,75.841 v 0 c 13.983,13.974 30.124,24.464 47.353,31.47 v 0 c 16.619,6.747 34.255,10.25 51.917,10.506 v 0 C 131.9101,649.03792 39.457995,581.90703 24.34,461.102"
                 style="fill:#0d3692;fill-opacity:1;stroke:none"
                 id="path82"
                 sodipodi:nodetypes="csssssssssccsccsccsccscccsccssssssssssssc" /></g></g></g></g><g
         id="g84"
         style="stroke-width:0.99975002;stroke-miterlimit:4;stroke-dasharray:none;fill-rule:evenodd;fill:#0d3692;fill-opacity:1;stroke:none"><g
           id="g86"
           clip-path="url(#clipPath90)"
           style="stroke-width:0.99975002;stroke-miterlimit:4;stroke-dasharray:none;fill-rule:evenodd;fill:#0d3692;fill-opacity:1;stroke:none"><g
             id="g92"
             style="stroke-width:0.99975002;stroke-miterlimit:4;stroke-dasharray:none;fill-rule:evenodd;fill:#0d3692;fill-opacity:1;stroke:none"><g
               id="g94"
               style="stroke-width:0.99975002;stroke-miterlimit:4;stroke-dasharray:none;fill-rule:evenodd;fill:#0d3692;fill-opacity:1;stroke:none"><path
                 d="M 687.961,709.782 C 656.403,699.284 626.748,681.471 601.63,656.353 v 0 C 579.74,634.463 535.756,590.479 499.998,554.72 v 0 h 0.009 c 0.742,-0.742 1.486,-1.486 2.22,-2.228 v 0 l 8.243,-8.234 c 0.132,-0.141 0.265,-0.274 0.406,-0.407 v 0 l 0.434,-0.434 c 0.549,-0.557 1.105,-1.105 1.654,-1.662 v 0 l 1.512,-1.513 c 0.186,-0.176 0.363,-0.362 0.548,-0.539 v 0 l 17.194,-17.194 2.282,-2.29 c 0.345,-0.346 0.689,-0.69 1.035,-1.027 v 0 L 554.719,500 c 0,0 75.319,74.471 102.056,101.207 v 0 c 55.95,55.95 146.624,56.004 202.512,0.106 v 0 c 34.441,-34.44 47.646,-82.085 39.615,-126.679 v 0 c -5.007,-27.771 -18.247,-54.367 -39.721,-75.842 v 0 c -13.983,-13.974 -30.124,-24.463 -47.353,-31.468 v 0 c -16.619,-6.749 -34.255,-10.251 -51.917,-10.507 v 0 c 113.59972,-1.39716 205.01793,77.0264 215.752,182.08 v 0 c -4.298,24.164 -12.63,47.753 -25.003,69.669 v 0 c -9.65,17.114 -21.766,33.211 -36.333,47.787 v 0 c -43.176,43.176 -99.751,64.764 -156.341,64.76 -25.10818,-1.34867 -49.70721,-4.70538 -70.025,-11.331"
                 style="fill:#0d3692;fill-opacity:1;fill-rule:evenodd;stroke:none;stroke-width:0.99975;stroke-miterlimit:4;stroke-dasharray:none"
                 id="path106"
                 sodipodi:nodetypes="csssccsccsccsccscccsccsssssssssssssssssscc" /></g></g></g></g></g></g><g
     id="g18"
     inkscape:groupmode="layer"
     inkscape:label="Albertaloop Logo (1)"
     transform="matrix(1.3333333,0,0,-1.3333333,0,1333.3333)"><g
       id="g108"><g
         id="g110"
         clip-path="url(#clipPath114)"><g
           id="g116"><g
             id="g118" /><g
             id="g146"
             mask="url(#mask134)"><g
               id="g148"><path
                 d="M 500.01,554.725 554.719,500 l 105.85,105.85 -54.72,54.721 z"
                 style="fill:url(#linearGradient158);stroke:none"
                 id="path160" /></g></g></g></g></g><g
       id="g162"><g
         id="g164"
         clip-path="url(#clipPath168)"><g
           id="g170"><g
             id="g172" /><g
             id="g200"
             mask="url(#mask188)"><g
               id="g202"><path
                 d="M 339.426,394.15 394.147,339.429 499.985,445.275 445.277,500 Z"
                 style="fill:url(#linearGradient212);stroke:none"
                 id="path214" /></g></g></g></g></g></g></svg>
